<?xml version="1.0" standalone="no"?><!DOCTYPE svg PUBLIC "-//W3C//DTD SVG 1.1//EN" "http://www.w3.org/Graphics/SVG/1.1/DTD/svg11.dtd"><svg t="1615171019242" class="icon" viewBox="0 0 1024 1024" version="1.1" xmlns="http://www.w3.org/2000/svg" p-id="16257" xmlns:xlink="http://www.w3.org/1999/xlink" width="200" height="200"><defs><style type="text/css"></style></defs><path d="M510.2 670.5c-88.2 0-160-71.8-160-160s71.8-160 160-160 160 71.8 160 160-71.7 160-160 160z m0-238c-43 0-78 35-78 78s35 78 78 78 78-35 78-78-34.9-78-78-78z" p-id="16258" fill="#2c2c2c"></path><path d="M915 339.5c-15.3-36.1-35.1-69.7-59.2-100.4L873 104.2c2.9-22.5-13-43-35.5-45.9-22.5-2.9-43 13-45.9 35.5l-9.1 71.8c-30.8-24.4-64.7-44.5-101.2-59.9-54.2-22.9-111.7-34.5-171-34.5s-116.8 11.6-171 34.5c-52.3 22.1-99.3 53.8-139.6 94.1s-72 87.3-94.1 139.6c-22.9 54.2-34.5 111.7-34.5 171s11.6 116.8 34.5 171c22.1 52.3 53.8 99.3 94.1 139.6s87.3 72 139.6 94.1c54.2 22.9 111.7 34.5 171 34.5s116.8-11.6 171-34.5c52.3-22.1 99.3-53.8 139.6-94.1s72-87.3 94.1-139.6c22.9-54.2 34.5-111.7 34.5-171 0.1-59.1-11.6-116.7-34.5-170.9zM510.2 867.9c-197 0-357.3-160.3-357.3-357.3s160.3-357.3 357.3-357.3c102.1 0 194.4 43.1 259.5 112l-40.3 316.4-68.2 42.6c-19.2 12-25.1 37.3-13.1 56.5C656 693.2 669.4 700 683 700c7.4 0 14.9-2 21.7-6.2l84.7-52.9c0.1-0.1 0.2-0.2 0.4-0.2 0.3-0.2 0.7-0.4 1-0.7 0.2-0.2 0.5-0.3 0.7-0.5 0.3-0.2 0.5-0.4 0.8-0.6 0.3-0.2 0.6-0.4 0.8-0.6 0.2-0.1 0.4-0.3 0.5-0.4 0.3-0.3 0.7-0.5 1-0.8 0 0 0.1 0 0.1-0.1 1.7-1.5 3.3-3.2 4.7-4.9 0.1-0.1 0.2-0.2 0.3-0.4 0.3-0.3 0.5-0.7 0.8-1 0.1-0.2 0.3-0.4 0.4-0.6l0.6-0.9c0.2-0.3 0.4-0.5 0.5-0.8 0.2-0.2 0.3-0.5 0.5-0.7 0.2-0.3 0.4-0.7 0.6-1l0.3-0.6c0.2-0.4 0.4-0.8 0.7-1.2 0.1-0.1 0.1-0.3 0.2-0.4 0.2-0.5 0.5-1 0.7-1.5 0-0.1 0.1-0.2 0.1-0.2 0.2-0.5 0.5-1.1 0.7-1.7v-0.1l0.6-1.8v-0.1c0.2-0.6 0.4-1.2 0.5-1.8v-0.1c0.1-0.5 0.3-1.1 0.4-1.6 0-0.1 0.1-0.2 0.1-0.3 0.1-0.4 0.2-0.9 0.3-1.3 0-0.2 0.1-0.4 0.1-0.7 0.1-0.3 0.1-0.6 0.1-0.9 0.1-0.4 0.1-0.7 0.2-1.1v-0.1L839 370.7c18.4 43 28.5 90.3 28.5 139.9 0.1 197-160.2 357.3-357.3 357.3z" p-id="16259" fill="#2c2c2c"></path></svg>