<?xml version="1.0" standalone="no"?><!DOCTYPE svg PUBLIC "-//W3C//DTD SVG 1.1//EN" "http://www.w3.org/Graphics/SVG/1.1/DTD/svg11.dtd"><svg t="1615171090224" class="icon" viewBox="0 0 1024 1024" version="1.1" xmlns="http://www.w3.org/2000/svg" p-id="17437" xmlns:xlink="http://www.w3.org/1999/xlink" width="200" height="200"><defs><style type="text/css"></style></defs><path d="M874.455 259C918.939 259 955 295.062 955 339.546v365.908C955 749.938 918.939 786 874.455 786h-724.91C105.061 786 69 749.938 69 705.454V339.546C69 295.062 105.061 259 149.545 259h724.91z m0 59.834h-724.91c-11.234 0-20.38 8.945-20.702 20.101l-0.01 0.61v365.91c0 11.234 8.945 20.38 20.102 20.702l0.61 0.009h724.91c11.234 0 20.38-8.945 20.702-20.101l0.01-0.61v-365.91c0-11.234-8.945-20.38-20.102-20.702l-0.61-0.009z m-355.551 82.847c52.745 0 95.504 42.759 95.504 95.505v52.93c0 52.745-42.759 95.504-95.504 95.504-52.745 0-95.504-42.759-95.504-95.504v-52.93c0-52.746 42.759-95.505 95.504-95.505z m279.63-0.575c16.522-0.075 29.978 13.257 30.054 29.78 0.074 16.286-12.88 29.593-29.074 30.042l-0.706 0.012-32.964 0.15-0.513 153.706c-0.055 16.523-13.494 29.872-30.017 29.817-16.286-0.054-29.49-13.113-29.81-29.31l-0.006-0.707 0.512-153.232-32.862 0.151c-16.522 0.076-29.977-13.257-30.053-29.78-0.075-16.286 12.879-29.593 29.073-30.042l0.706-0.011 125.66-0.576z m-447.466 1.617c16.287 0 29.534 13.015 29.909 29.211l0.008 0.706v182.02c0 16.524-13.394 29.918-29.917 29.918-16.287 0-29.534-13.014-29.909-29.211l-0.008-0.706v-61.094h-62.294v61.094c0 16.523-13.394 29.917-29.917 29.917-16.286 0-29.533-13.014-29.908-29.211l-0.009-0.706V432.64c0-16.523 13.395-29.918 29.917-29.918 16.287 0 29.534 13.015 29.909 29.211l0.008 0.706v61.093h62.294V432.64c0-16.522 13.394-29.917 29.917-29.917z m167.836 58.792c-19.457 0-35.275 15.579-35.663 34.943l-0.007 0.728v52.93c0 19.7 15.97 35.67 35.67 35.67 19.457 0 35.275-15.578 35.663-34.942l0.007-0.728v-52.93c0-19.7-15.97-35.67-35.67-35.67z" fill="#333333" p-id="17438"></path></svg>