<?xml version="1.0" standalone="no"?><!DOCTYPE svg PUBLIC "-//W3C//DTD SVG 1.1//EN" "http://www.w3.org/Graphics/SVG/1.1/DTD/svg11.dtd"><svg t="1615170594062" class="icon" viewBox="0 0 1024 1024" version="1.1" xmlns="http://www.w3.org/2000/svg" p-id="11677" xmlns:xlink="http://www.w3.org/1999/xlink" width="200" height="200"><defs><style type="text/css"></style></defs><path d="M152.492 313.756c3.675-3.444 37.555-34.061 94.722-48.346 76.049-19.002 155.579-0.784 236.379 54.15 69.54 47.284 141.632 71.504 214.273 71.988 0.746 0.005 1.481 0.007 2.224 0.007 66.101 0 120.219-19.543 156.878-38.239l3.478 70.913L960 258.175l-194.688-6.818 63.588 44.43c-56.449 29.746-170.403 64.402-308.905-29.77-54.16-36.815-109.411-59.778-164.218-68.249-44.017-6.804-87.831-4.327-130.225 7.362-73.151 20.168-117.31 61.408-117.723 61.807-12.798 12.269-13.262 32.738-1.027 45.638 12.266 12.874 32.77 13.399 45.69 1.181zM865.976 489.359c-6.122 5.27-152.178 127.546-347.02-4.907-54.158-36.815-109.407-59.776-164.214-68.246-44.016-6.803-87.829-4.325-130.224 7.366-73.706 20.323-117.287 61.382-117.725 61.801-6.244 5.988-9.781 14.044-9.961 22.684-0.179 8.641 3.02 16.834 9.007 23.068 5.976 6.237 14.027 9.773 22.67 9.959 8.648 0.186 16.844-3.006 23.084-8.994 0.336-0.32 34.267-32.218 93.103-47.28 75.866-19.422 158.122-1.031 237.877 53.187 69.561 47.289 141.648 71.509 214.259 71.988 0.732 0.005 1.45 0.007 2.179 0.007 125.094-0.006 208.67-71.104 209.455-71.8 13.374-11.681 14.771-32.107 3.118-45.533-11.661-13.452-32.123-14.933-45.608-3.3zM864.946 709.701c-6.122 5.269-152.164 127.542-347.007-4.923-154.047-104.719-280.608-74.215-351.212-39.202l-3.174-64.724L64 766.906l194.688 6.818-68.593-47.927c14.298-7.54 32.173-15.16 53.202-20.579 52.978-13.654 137.315-15.526 238.238 53.099 68.957 46.862 140.388 71.07 212.338 71.969l1.945 0.023c0.725 0.005 1.449 0.007 2.171 0.007 123.878-0.001 205.967-68.808 209.468-71.796 13.341-11.694 14.732-32.131 3.099-45.558-11.658-13.452-32.121-14.913-45.61-3.261z" p-id="11678"></path></svg>